# xmcd
#
# Track frame offsets: 
#        150
#        19133
#        36369
#        51313
#        71701
#        86746
#        97141
#        108398
#        123285
#        135657
#        155038
#        164545
#        177939
#
# Disc length: 2604 seconds
#
# Revision: 3
# Processed by: cddbd v1.5.2PL0 Copyright (c) Steve Scherf et al.
# Submitted via: ExactAudioCopyFreeDBPlugin 1.0
#
DISCID=bb0a2a0d
DTITLE=Ike and Tina Turner - The Collection [Entertain Me Europe]
DYEAR=2008
DGENRE=Rhythm and Blues
TTITLE0=Something
TTITLE1=I Can't Stop Loving You (live)
TTITLE2=Sweet Rhode Island Red
TTITLE3=I Don't Want Nobody
TTITLE4=I Got My Mojo Working
TTITLE5=You Can't Blame Me
TTITLE6=I Had a Notion
TTITLE7=Keep You Guessing
TTITLE8=I Wanna Jump
TTITLE9=Ode to Billie Joe
TTITLE10=The Locomotion
TTITLE11=Get Back
TTITLE12=Stand By Me (live)
EXTD=
EXTT0=
EXTT1=
EXTT2=
EXTT3=
EXTT4=
EXTT5=
EXTT6=
EXTT7=
EXTT8=
EXTT9=
EXTT10=
EXTT11=
EXTT12=
PLAYORDER=
